# xmcd
#
# Track frame offsets:
#	150
#	17818
#	33260
#	47936
#	63290
#	77309
#	92782
#	106418
#	118298
#	131325
#	146555
#	164231
#	180852
#	196524
#	207144
#	224631
#	239531
#	254070
#	274657
#	289658
#
# Disc length: 4053 seconds
#
# Revision: 1
# Processed by: cddbd v1.5.2PL0 Copyright (c) Steve Scherf et al.
# Submitted via: audiograbber 1.83.01
#
DISCID=270fd314
DTITLE=CD 4 - Die besten 100 Schlager
DYEAR=1900
DGENRE=
TTITLE0=Ich liebe dich
TTITLE1=Guten Morgen
TTITLE2=Hände zum Himmel
TTITLE3=Was weißt du schon von Liebe (Radio Mix)
TTITLE4=Lieber Gott lass uns erhalten
TTITLE5=Ich hab den Himmel geseh'n
TTITLE6=Du bist zu schön um wahr zu sein
TTITLE7=Kein Land kann schöner sein
TTITLE8=Oh My Darling Caroline
TTITLE9=Ich war noch nie dem Himmel so nah
TTITLE10=Theo, wir fahr'n nach Lodz
TTITLE11=In der Hölle der Nacht
TTITLE12=Das Wird 'ne Lange Nacht
TTITLE13=Bianca
TTITLE14=Spanish Eyes
TTITLE15=Bumm Bumm Danz
TTITLE16=Aber dich gibt's nur einmal für mich
TTITLE17=Da schlug die Flamme
TTITLE18=Es war nur ein Augenblick
TTITLE19=Diesmal will ich Liebe
EXTD=
EXTT0=
EXTT1=
EXTT2=
EXTT3=
EXTT4=
EXTT5=
EXTT6=
EXTT7=
EXTT8=
EXTT9=
EXTT10=
EXTT11=
EXTT12=
EXTT13=
EXTT14=
EXTT15=
EXTT16=
EXTT17=
EXTT18=
EXTT19=
PLAYORDER=
